<svg xmlns="http://www.w3.org/2000/svg" xmlns:xlink="http://www.w3.org/1999/xlink" width="55" height="54.031" viewBox="0 0 55 54.031">
  <defs>
    <style>
      .cls-1 {
        fill-rule: evenodd;
        filter: url(#filter);
      }
    </style>
    <filter id="filter" x="252" y="768.969" width="55" height="54.031" filterUnits="userSpaceOnUse">
      <feFlood result="flood" flood-color="#f50049"/>
      <feComposite result="composite" operator="in" in2="SourceGraphic"/>
      <feBlend result="blend" in2="SourceGraphic"/>
    </filter>
  </defs>
  <path id="иконка_доставка" data-name="иконка доставка" class="cls-1" d="M304.066,781.144h-7.63a7.457,7.457,0,0,0,2.008-5.092s0-.3,0-0.385a6.847,6.847,0,0,0-3.56-5.78,7.109,7.109,0,0,0-6.979,0l-3.469,1.945a12.053,12.053,0,0,0-4.932,5.209,12.053,12.053,0,0,0-4.932-5.209l-3.469-1.945a7.109,7.109,0,0,0-6.979,0,6.847,6.847,0,0,0-3.56,5.78c0,0.085,0,.385,0,0.385a7.459,7.459,0,0,0,2.008,5.092h-7.63A2.927,2.927,0,0,0,252,784.057v6.913a2.927,2.927,0,0,0,2.934,2.913h1.344v26.2A2.927,2.927,0,0,0,259.212,823h40.576a2.927,2.927,0,0,0,2.934-2.913v-26.2h1.344A2.927,2.927,0,0,0,307,790.97v-6.913A2.927,2.927,0,0,0,304.066,781.144Zm-18.433-7.2L289.1,772a4.662,4.662,0,0,1,4.58,0A4.44,4.44,0,0,1,296,775.749c0,0.058,0,.3,0,0.3a5.117,5.117,0,0,1-5.13,5.092H280.792A9.6,9.6,0,0,1,285.633,773.945Zm-22.63,1.8A4.442,4.442,0,0,1,265.316,772a4.665,4.665,0,0,1,4.581,0l3.47,1.944a9.605,9.605,0,0,1,4.841,7.2H268.13a5.117,5.117,0,0,1-5.13-5.092S263,775.807,263,775.749Zm11,21.825h-5.032a1.213,1.213,0,1,0,0,2.426H274v20.573H259.212a0.488,0.488,0,0,1-.49-0.486v-26.2H274v3.691h0Zm0-6.118H254.934a0.489,0.489,0,0,1-.49-0.486v-6.913a0.49,0.49,0,0,1,.49-0.487H274v7.886Zm8.555,29.117h-6.11v-37h6.11v37Zm17.723-.486a0.488,0.488,0,0,1-.49.486H285V800h4.657a1.214,1.214,0,1,0,0-2.427H285v-3.69h15.278v26.2h0Zm4.278-29.117a0.489,0.489,0,0,1-.49.486H285V783.57h19.066a0.49,0.49,0,0,1,.49.487v6.913h0ZM295.463,800h0.122a1.214,1.214,0,1,0,0-2.427h-0.122A1.214,1.214,0,1,0,295.463,800Zm-32.422,0h0.122a1.214,1.214,0,1,0,0-2.427h-0.122A1.214,1.214,0,1,0,263.041,800Z" transform="translate(-252 -768.969)"/>
</svg>
